<svg width="28" height="28" viewBox="0 0 28 28" fill="none" xmlns="http://www.w3.org/2000/svg">
<g clip-path="url(#clip0)">
<path d="M27.9386 23.4853C27.948 23.4554 27.9261 23.4234 27.9211 23.39L26.4332 13.5198L26.4701 13.5187V8.1025C26.4701 7.50081 25.8811 7.00622 25.279 7.00622H19.9135V4.38356H23.3096C23.4305 4.38356 23.6289 4.28018 23.6289 4.15954V0.22139C23.6289 0.100748 23.4305 0.0124512 23.3096 0.0124512H14.1462C14.0258 0.0124512 14.0125 0.100748 14.0125 0.22139V4.15954C14.0125 4.28018 14.0258 4.38356 14.1462 4.38356H17.5094V7.00622H10.297V4.61239C10.297 4.2509 9.94668 3.94645 9.58475 3.94645H4.76889C4.4074 3.94645 4.17747 4.2509 4.17747 4.61239V7.00622H2.5829C1.98143 7.00622 1.55481 7.50081 1.55481 8.1025V13.5367L0.000882121 23.3902C-0.00414465 23.4234 0.0135583 23.4556 0.0225191 23.4855C0.0190222 23.5207 0.0249232 23.5548 0.0249232 23.5906V26.8615C0.0249232 27.4637 0.456352 27.9875 1.05803 27.9875H26.8069C27.409 27.9875 28 27.4637 28 26.8615V23.5906C28 23.5548 27.9419 23.5207 27.9386 23.4853ZM14.8867 3.29078V1.10523H20.5038H22.023H22.5361V3.29078H14.8867ZM11.6084 15.5294C11.6084 15.409 11.7061 15.3113 11.8267 15.3113H12.9199C13.0406 15.3113 13.1382 15.409 13.1382 15.5294V16.6231C13.1382 16.7435 13.0406 16.8412 12.9199 16.8412H11.8267C11.7061 16.8412 11.6084 16.7435 11.6084 16.6231V15.5294ZM11.6084 17.715C11.6084 17.5946 11.7061 17.4969 11.8267 17.4969H12.9199C13.0406 17.4969 13.1382 17.5946 13.1382 17.715V18.8086C13.1382 18.9291 13.0406 19.0268 12.9199 19.0268H11.8267C11.7061 19.0268 11.6084 18.9291 11.6084 18.8086V17.715ZM11.6084 19.9006C11.6084 19.7801 11.7061 19.6824 11.8267 19.6824H12.9199C13.0406 19.6824 13.1382 19.7801 13.1382 19.9006V20.9942C13.1382 21.1146 13.0406 21.2123 12.9199 21.2123H11.8267C11.7061 21.2123 11.6084 21.1146 11.6084 20.9942V19.9006ZM5.27025 20.9942C5.27025 21.1146 5.17256 21.2123 5.05192 21.2123H3.9587C3.83806 21.2123 3.74036 21.1146 3.74036 20.9942V19.9006C3.74036 19.7801 3.83806 19.6824 3.9587 19.6824H5.05192C5.17256 19.6824 5.27025 19.7801 5.27025 19.9006V20.9942ZM5.27025 18.8086C5.27025 18.9291 5.17256 19.0268 5.05192 19.0268H3.9587C3.83806 19.0268 3.74036 18.9291 3.74036 18.8086V17.715C3.74036 17.5946 3.83806 17.4969 3.9587 17.4969H5.05192C5.17256 17.4969 5.27025 17.5946 5.27025 17.715V18.8086ZM5.27025 16.6231C5.27025 16.7435 5.17256 16.8412 5.05192 16.8412H3.9587C3.83806 16.8412 3.74036 16.7435 3.74036 16.6231V15.5294C3.74036 15.409 3.83806 15.3113 3.9587 15.3113H5.05192C5.17256 15.3113 5.27025 15.409 5.27025 15.5294V16.6231ZM5.48881 5.25778H8.98569V9.84744H5.48881V5.25778ZM7.4558 20.9942C7.4558 21.1146 7.35811 21.2123 7.23747 21.2123H6.14426C6.02361 21.2123 5.92592 21.1146 5.92592 20.9942V19.9006C5.92592 19.7801 6.02361 19.6824 6.14426 19.6824H7.23747C7.35811 19.6824 7.4558 19.7801 7.4558 19.9006V20.9942ZM7.4558 18.8086C7.4558 18.9291 7.35811 19.0268 7.23747 19.0268H6.14426C6.02361 19.0268 5.92592 18.9291 5.92592 18.8086V17.715C5.92592 17.5946 6.02361 17.4969 6.14426 17.4969H7.23747C7.35811 17.4969 7.4558 17.5946 7.4558 17.715V18.8086ZM7.4558 16.6231C7.4558 16.7435 7.35811 16.8412 7.23747 16.8412H6.14426C6.02361 16.8412 5.92592 16.7435 5.92592 16.6231V15.5294C5.92592 15.409 6.02361 15.3113 6.14426 15.3113H7.23747C7.35811 15.3113 7.4558 15.409 7.4558 15.5294V16.6231ZM9.64136 20.9942C9.64136 21.1146 9.54366 21.2123 9.42302 21.2123H8.32981C8.20917 21.2123 8.11147 21.1146 8.11147 20.9942V19.9006C8.11147 19.7801 8.20917 19.6824 8.32981 19.6824H9.42302C9.54366 19.6824 9.64136 19.7801 9.64136 19.9006V20.9942ZM9.64136 18.8086C9.64136 18.9291 9.54366 19.0268 9.42302 19.0268H8.32981C8.20917 19.0268 8.11147 18.9291 8.11147 18.8086V17.715C8.11147 17.5946 8.20917 17.4969 8.32981 17.4969H9.42302C9.54366 17.4969 9.64136 17.5946 9.64136 17.715V18.8086ZM9.64136 16.6231C9.64136 16.7435 9.54366 16.8412 9.42302 16.8412H8.32981C8.20917 16.8412 8.11147 16.7435 8.11147 16.6231V15.5294C8.11147 15.409 8.20917 15.3113 8.32981 15.3113H9.42302C9.54366 15.3113 9.64136 15.409 9.64136 15.5294V16.6231ZM17.9465 25.3662C17.9465 25.969 17.4578 26.4576 16.855 26.4576H11.1699C10.5672 26.4576 10.0785 25.969 10.0785 25.3662V25.145C10.0785 24.5422 10.5672 24.0535 11.1699 24.0535H16.855C17.4578 24.0535 17.9465 24.5422 17.9465 25.145V25.3662ZM14.0122 17.4969H15.1055C15.2261 17.4969 15.3238 17.5946 15.3238 17.715V18.8086C15.3238 18.9291 15.2261 19.0268 15.1055 19.0268H14.0122C13.8916 19.0268 13.7939 18.9291 13.7939 18.8086V17.715C13.7939 17.5946 13.8916 17.4969 14.0122 17.4969ZM13.7939 16.6231V15.5294C13.7939 15.409 13.8916 15.3113 14.0122 15.3113H15.1055C15.2261 15.3113 15.3238 15.409 15.3238 15.5294V16.6231C15.3238 16.7435 15.2261 16.8412 15.1055 16.8412H14.0122C13.8916 16.8412 13.7939 16.7435 13.7939 16.6231ZM14.0122 19.6824H15.1055C15.2261 19.6824 15.3238 19.7801 15.3238 19.9006V20.9942C15.3238 21.1146 15.2261 21.2123 15.1055 21.2123H14.0122C13.8916 21.2123 13.7939 21.1146 13.7939 20.9942V19.9006C13.7939 19.7801 13.8916 19.6824 14.0122 19.6824ZM16.1978 17.4969H17.291C17.4117 17.4969 17.5094 17.5946 17.5094 17.715V18.8086C17.5094 18.9291 17.4117 19.0268 17.291 19.0268H16.1978C16.0772 19.0268 15.9795 18.9291 15.9795 18.8086V17.715C15.9795 17.5946 16.0772 17.4969 16.1978 17.4969ZM15.9795 16.6231V15.5294C15.9795 15.409 16.0772 15.3113 16.1978 15.3113H17.291C17.4117 15.3113 17.5094 15.409 17.5094 15.5294V16.6231C17.5094 16.7435 17.4117 16.8412 17.291 16.8412H16.1978C16.0772 16.8412 15.9795 16.7435 15.9795 16.6231ZM16.1978 19.6824H17.291C17.4117 19.6824 17.5094 19.7801 17.5094 19.9006V20.9942C17.5094 21.1146 17.4117 21.2123 17.291 21.2123H16.1978C16.0772 21.2123 15.9795 21.1146 15.9795 20.9942V19.9006C15.9795 19.7801 16.0772 19.6824 16.1978 19.6824ZM19.6949 20.9942C19.6949 21.1146 19.5972 21.2123 19.4766 21.2123H18.3834C18.2627 21.2123 18.165 21.1146 18.165 20.9942V19.9006C18.165 19.7801 18.2627 19.6824 18.3834 19.6824H19.4766C19.5972 19.6824 19.6949 19.7801 19.6949 19.9006V20.9942ZM19.6949 18.8086C19.6949 18.9291 19.5972 19.0268 19.4766 19.0268H18.3834C18.2627 19.0268 18.165 18.9291 18.165 18.8086V17.715C18.165 17.5946 18.2627 17.4969 18.3834 17.4969H19.4766C19.5972 17.4969 19.6949 17.5946 19.6949 17.715V18.8086ZM19.6949 16.6231C19.6949 16.7435 19.5972 16.8412 19.4766 16.8412H18.3834C18.2627 16.8412 18.165 16.7435 18.165 16.6231V15.5294C18.165 15.409 18.2627 15.3113 18.3834 15.3113H19.4766C19.5972 15.3113 19.6949 15.409 19.6949 15.5294V16.6231ZM21.8805 20.9942C21.8805 21.1146 21.7828 21.2123 21.6621 21.2123H20.5689C20.4483 21.2123 20.3506 21.1146 20.3506 20.9942V19.9006C20.3506 19.7801 20.4483 19.6824 20.5689 19.6824H21.6621C21.7828 19.6824 21.8805 19.7801 21.8805 19.9006V20.9942ZM21.8805 18.8086C21.8805 18.9291 21.7828 19.0268 21.6621 19.0268H20.5689C20.4483 19.0268 20.3506 18.9291 20.3506 18.8086V17.715C20.3506 17.5946 20.4483 17.4969 20.5689 17.4969H21.6621C21.7828 17.4969 21.8805 17.5946 21.8805 17.715V18.8086ZM21.8805 16.6231C21.8805 16.7435 21.7828 16.8412 21.6621 16.8412H20.5689C20.4483 16.8412 20.3506 16.7435 20.3506 16.6231V15.5294C20.3506 15.409 20.4483 15.3113 20.5689 15.3113H21.6621C21.7828 15.3113 21.8805 15.409 21.8805 15.5294V16.6231ZM24.066 20.9942C24.066 21.1146 23.9683 21.2123 23.8477 21.2123H22.7545C22.6338 21.2123 22.5361 21.1146 22.5361 20.9942V19.9006C22.5361 19.7801 22.6338 19.6824 22.7545 19.6824H23.8477C23.9683 19.6824 24.066 19.7801 24.066 19.9006V20.9942ZM24.066 18.8086C24.066 18.9291 23.9683 19.0268 23.8477 19.0268H22.7545C22.6338 19.0268 22.5361 18.9291 22.5361 18.8086V17.715C22.5361 17.5946 22.6338 17.4969 22.7545 17.4969H23.8477C23.9683 17.4969 24.066 17.5946 24.066 17.715V18.8086ZM24.066 16.6231C24.066 16.7435 23.9683 16.8412 23.8477 16.8412H22.7545C22.6338 16.8412 22.5361 16.7435 22.5361 16.6231V15.5294C22.5361 15.409 22.6338 15.3113 22.7545 15.3113H23.8477C23.9683 15.3113 24.066 15.409 24.066 15.5294V16.6231ZM25.3773 12.4705C25.3773 12.591 25.2797 12.6887 25.1592 12.6887H12.4821C12.3617 12.6887 12.264 12.591 12.264 12.4705V8.31712C12.264 8.19669 12.3617 8.099 12.4821 8.099H25.1592C25.2797 8.099 25.3773 8.19669 25.3773 8.31712V12.4705Z" fill="#F9F7F0"/>
</g>
<defs>
<clipPath id="clip0">
<rect width="28" height="28" fill="white"/>
</clipPath>
</defs>
</svg>
