<svg width="28" height="28" viewBox="0 0 28 28" fill="none" xmlns="http://www.w3.org/2000/svg">
<path d="M12.9949 25.4341C11.8514 25.8645 10.7079 24.9484 10.7773 23.8104C10.5405 23.4713 10.3923 23.1503 10.2616 23.0781H10.2463C9.94443 23.246 9.55724 24.7188 8.20318 24.7188C6.86662 24.7188 6.47013 23.2827 6.17154 23.0852C6.16388 23.0803 6.15513 23.0781 6.14584 23.0781C6.14529 23.0781 6.14474 23.0781 6.14474 23.0781C5.84287 23.246 5.45568 24.7188 4.10162 24.7188C3.6488 24.7188 3.2813 24.3512 3.2813 23.8984C3.2813 23.4456 3.6488 23.0781 4.10162 23.0781H4.10927C4.41115 22.9102 4.79834 21.4375 6.1524 21.4375C7.50646 21.4375 7.89529 22.9113 8.19552 23.0781H8.21084C8.51271 22.9102 8.8999 21.4375 10.254 21.4375C10.7046 21.4375 11.0475 21.6016 11.3144 21.8214L11.9777 19.5453L13.2651 18.1562H4.10156C3.64875 18.1562 3.28125 17.7887 3.28125 17.3359C3.28125 16.8831 3.64875 16.5156 4.10156 16.5156H14.6327C14.6809 16.5156 14.7284 16.52 14.7744 16.5277L21.3281 9.45711V2.57031C21.3281 2.1175 20.9606 1.75 20.5078 1.75H18.0469V4.21094C18.0469 4.66375 17.6794 5.03125 17.2266 5.03125C16.7738 5.03125 16.4062 4.66375 16.4062 4.21094V1.75H11.4844V4.21094C11.4844 4.66375 11.1169 5.03125 10.6641 5.03125C10.2113 5.03125 9.84375 4.66375 9.84375 4.21094V1.75H4.92188V4.21094C4.92188 4.66375 4.55438 5.03125 4.10156 5.03125C3.64875 5.03125 3.28125 4.66375 3.28125 4.21094V1.75H0.820312C0.3675 1.75 0 2.1175 0 2.57031V27.1797C0 27.6325 0.3675 28 0.820312 28H20.5078C20.9606 28 21.3281 27.6325 21.3281 27.1797V19.1111L16.7913 24.0067L12.9949 25.4341ZM4.10156 6.67188H17.2266C17.6794 6.67188 18.0469 7.03937 18.0469 7.49219C18.0469 7.945 17.6794 8.3125 17.2266 8.3125H4.10156C3.64875 8.3125 3.28125 7.945 3.28125 7.49219C3.28125 7.03937 3.64875 6.67188 4.10156 6.67188ZM4.10156 11.5938H17.2266C17.6794 11.5938 18.0469 11.9613 18.0469 12.4141C18.0469 12.8669 17.6794 13.2344 17.2266 13.2344H4.10156C3.64875 13.2344 3.28125 12.8669 3.28125 12.4141C3.28125 11.9613 3.64875 11.5938 4.10156 11.5938Z" fill="#F9F7F0"/>
<path d="M25.3301 12.3785L27.003 10.5738C27.3113 10.242 27.2912 9.72344 26.9597 9.41495L27.5171 8.8135C27.8251 8.48122 27.8054 7.96223 27.4731 7.65424C27.1408 7.34624 26.6217 7.36598 26.3139 7.69826L25.7562 8.29998C25.4242 7.99209 24.9046 8.01173 24.5967 8.34368L22.9238 10.1489L25.3301 12.3785Z" fill="#F9F7F0"/>
<path d="M27.7375 14.6097C25.84 12.8513 25.4214 12.4635 25.3445 12.3923C25.3447 12.3924 25.3445 12.3923 25.344 12.3918V12.3918C25.344 12.3918 25.3439 12.3918 25.3439 12.3917C25.3435 12.3914 25.3358 12.3842 25.335 12.3834C25.3351 12.3836 25.3353 12.3838 25.3354 12.3839C25.3347 12.3832 25.3337 12.3823 25.3328 12.3814C25.3328 12.3814 25.3328 12.3814 25.3329 12.3815C25.3329 12.3815 25.3302 12.379 25.3301 12.3789L24.2151 13.582C24.2153 13.5823 24.2177 13.5845 24.2184 13.5851C24.2177 13.5845 24.2171 13.584 24.2166 13.5835C24.2172 13.5841 24.2345 13.6001 24.2364 13.6018C24.2363 13.6018 24.2362 13.6017 24.2362 13.6016C24.2369 13.6023 24.2371 13.6025 24.2369 13.6023C24.3204 13.6796 24.6825 14.0154 26.0203 15.2555L23.2323 18.2633C22.9244 18.5958 22.9441 19.1148 23.2761 19.4227C23.6108 19.733 24.1307 19.7084 24.4355 19.3789L27.7813 15.769C28.0888 15.4377 28.07 14.9182 27.7375 14.6097ZM24.2193 13.586C24.2198 13.5864 24.2203 13.5868 24.2208 13.5873C24.2203 13.5868 24.2198 13.5864 24.2193 13.586ZM24.221 13.5876C24.2222 13.5886 24.2231 13.5895 24.2241 13.5904C24.223 13.5894 24.222 13.5885 24.221 13.5876ZM24.2276 13.5936C24.228 13.594 24.2285 13.5944 24.2289 13.5948C24.2285 13.5944 24.228 13.594 24.2276 13.5936ZM24.2321 13.5978C24.2333 13.5989 24.2343 13.5999 24.235 13.6005C24.2343 13.5998 24.2333 13.5989 24.2321 13.5978Z" fill="#F9F7F0"/>
<path d="M24.2152 13.5822L21.8089 11.3521L13.4445 20.3766L12.4175 23.8985L15.8513 22.6073L24.2152 13.5822C24.2155 13.5825 24.2161 13.5831 24.2167 13.5836C24.2166 13.5835 24.2165 13.5835 24.2164 13.5834C24.216 13.583 24.2157 13.5826 24.2152 13.5822Z" fill="#F9F7F0"/>
<path d="M25.3398 12.388C25.3409 12.3891 25.3434 12.3914 25.3439 12.3918C25.3439 12.3918 25.3439 12.3918 25.3439 12.3919C25.3424 12.3905 25.3388 12.3872 25.3354 12.384C25.3363 12.3848 25.339 12.3873 25.3398 12.388Z" fill="#F9F7F0"/>
<path d="M24.2368 13.6023C24.2367 13.6021 24.2365 13.602 24.2363 13.6018C24.2366 13.602 24.2368 13.6022 24.2368 13.6023Z" fill="#F9F7F0"/>
<path d="M25.3303 12.3792C25.3309 12.3798 25.3316 12.3805 25.3327 12.3815C25.3327 12.3815 25.3327 12.3816 25.3328 12.3816C25.3297 12.3787 25.3279 12.377 25.3301 12.3791C25.3302 12.3791 25.3302 12.3792 25.3303 12.3792Z" fill="#F9F7F0"/>
<path d="M4.92188 0.820312C4.92188 0.3675 4.55437 0 4.10156 0C3.64875 0 3.28125 0.3675 3.28125 0.820312V1.75H4.92188V0.820312Z" fill="#F9F7F0"/>
<path d="M11.4844 0.820312C11.4844 0.3675 11.1169 0 10.6641 0C10.2113 0 9.84375 0.3675 9.84375 0.820312V1.75H11.4844V0.820312Z" fill="#F9F7F0"/>
<path d="M18.0469 0.820312C18.0469 0.3675 17.6794 0 17.2266 0C16.7738 0 16.4062 0.3675 16.4062 0.820312V1.75H18.0469V0.820312Z" fill="#F9F7F0"/>
</svg>
