<svg width="28" height="28" viewBox="0 0 28 28" fill="none" xmlns="http://www.w3.org/2000/svg">
<path d="M5.5 5.5H6.50049V6.5H5.5V5.5Z" fill="#F9F7F0"/>
<path d="M1.5 1.5H10.5V3H1.5V1.5Z" fill="#F9F7F0"/>
<path d="M9 12.5H10.0005V13.5H9V12.5Z" fill="#F9F7F0"/>
<path d="M9 9H10.0005V10H9V9Z" fill="#F9F7F0"/>
<path d="M9 5.5H10.0005V6.5H9V5.5Z" fill="#F9F7F0"/>
<path d="M5.5 9H6.50049V10H5.5V9Z" fill="#F9F7F0"/>
<path d="M0.5 15H11.5C11.7761 15 12 14.7761 12 14.5V0.5C12 0.223877 11.7761 0 11.5 0H0.5C0.223877 0 0 0.223877 0 0.5V14.5C0 14.7761 0.223877 15 0.5 15ZM4 13.5C4 14.0522 3.55225 14.5 3 14.5H2C1.44775 14.5 1 14.0522 1 13.5V12.5C1 11.9478 1.44775 11.5 2 11.5H3C3.55225 11.5 4 11.9478 4 12.5V13.5ZM4 10C4 10.5522 3.55225 11 3 11H2C1.44775 11 1 10.5522 1 10V9C1 8.44775 1.44775 8 2 8H3C3.55225 8 4 8.44775 4 9V10ZM4 6.5C4 7.05225 3.55225 7.5 3 7.5H2C1.44775 7.5 1 7.05225 1 6.5V5.5C1 4.94775 1.44775 4.5 2 4.5H3C3.55225 4.5 4 4.94775 4 5.5V6.5ZM7.5 13.5C7.5 14.0522 7.05225 14.5 6.5 14.5H5.5C4.94775 14.5 4.5 14.0522 4.5 13.5V12.5C4.5 11.9478 4.94775 11.5 5.5 11.5H6.5C7.05225 11.5 7.5 11.9478 7.5 12.5V13.5ZM7.5 10C7.5 10.5522 7.05225 11 6.5 11H5.5C4.94775 11 4.5 10.5522 4.5 10V9C4.5 8.44775 4.94775 8 5.5 8H6.5C7.05225 8 7.5 8.44775 7.5 9V10ZM7.5 6.5C7.5 7.05225 7.05225 7.5 6.5 7.5H5.5C4.94775 7.5 4.5 7.05225 4.5 6.5V5.5C4.5 4.94775 4.94775 4.5 5.5 4.5H6.5C7.05225 4.5 7.5 4.94775 7.5 5.5V6.5ZM11 13.5C11 14.0522 10.5522 14.5 10 14.5H9C8.44775 14.5 8 14.0522 8 13.5V12.5C8 11.9478 8.44775 11.5 9 11.5H10C10.5522 11.5 11 11.9478 11 12.5V13.5ZM11 10C11 10.5522 10.5522 11 10 11H9C8.44775 11 8 10.5522 8 10V9C8 8.44775 8.44775 8 9 8H10C10.5522 8 11 8.44775 11 9V10ZM11 6.5C11 7.05225 10.5522 7.5 10 7.5H9C8.44775 7.5 8 7.05225 8 6.5V5.5C8 4.94775 8.44775 4.5 9 4.5H10C10.5522 4.5 11 4.94775 11 5.5V6.5ZM0.5 0.5H11.5V4H0.5V0.5Z" fill="#F9F7F0"/>
<path d="M2 9H3.00049V10H2V9Z" fill="#F9F7F0"/>
<path d="M2 12.5H3.00049V13.5H2V12.5Z" fill="#F9F7F0"/>
<path d="M5.5 12.5H6.50049V13.5H5.5V12.5Z" fill="#F9F7F0"/>
<path d="M2 5.5H3.00049V6.5H2V5.5Z" fill="#F9F7F0"/>
<path d="M19.9746 25.6465C19.9326 25.688 19.8838 25.7219 19.8301 25.7466L17.209 26.9536C17.019 27.0408 16.7947 27.0005 16.647 26.8525C16.499 26.7048 16.4587 26.4805 16.5459 26.2905L17.7529 23.6694C17.7776 23.6157 17.8113 23.5669 17.853 23.5249L24.5 16.8789V8H18.5V2H13V14.5C13 15.3284 12.3284 16 11.5 16H3.5V28H24.5V21.1216L19.9746 25.6465ZM17 9.5H23V10.5H17V9.5ZM17 11.5H23V12.5H17V11.5ZM17 13.5H23V14.5H17V13.5ZM17 15.5H23V16.5H17V15.5ZM10.5 27C7.73853 27 5.5 24.7615 5.5 22C5.5 19.2385 7.73853 17 10.5 17C13.2615 17 15.5 19.2385 15.5 22C15.4971 24.7603 13.2603 26.9971 10.5 27ZM16 16.5H15V15.5H16V16.5ZM16 14.5H15V13.5H16V14.5ZM16 12.5H15V11.5H16V12.5ZM16 10.5H15V9.5H16V10.5Z" fill="#F9F7F0"/>
<path d="M19.5 7H23.793L19.5 2.70703V7Z" fill="#F9F7F0"/>
<path d="M27.8389 16.3678C28.0339 16.1727 28.0339 15.8561 27.8389 15.6608C27.6411 15.4718 27.3298 15.4718 27.1323 15.6608L26.7783 16.0143L27.4854 16.7213L27.8389 16.3678Z" fill="#F9F7F0"/>
<path d="M25.7217 17.071L26.071 16.7219L26.7781 17.429L26.4287 17.7783L25.7217 17.071Z" fill="#F9F7F0"/>
<path d="M18.0205 25.4795L19.3306 24.876L25.7219 18.4851L25.0149 17.7781L18.624 24.1694L18.0205 25.4795Z" fill="#F9F7F0"/>
<path d="M10.5 18C8.29077 18 6.5 19.7908 6.5 22C6.5 24.2092 8.29077 26 10.5 26C12.7092 26 14.5 24.2092 14.5 22C14.4976 19.792 12.708 18.0024 10.5 18ZM10.5 21.5C11.6216 21.5 12.5 22.1584 12.5 23C12.5 23.7104 11.8706 24.2859 11 24.45V25H10V24.45C9.12939 24.2871 8.5 23.7114 8.5 23H9.5C9.5 23.2041 9.8894 23.5 10.5 23.5C11.1106 23.5 11.5 23.2041 11.5 23C11.5 22.7959 11.1106 22.5 10.5 22.5C9.37842 22.5 8.5 21.8416 8.5 21C8.5 20.2896 9.12939 19.7141 10 19.55V19H11V19.55C11.8706 19.7129 12.5 20.2886 12.5 21H11.5C11.5 20.7959 11.1106 20.5 10.5 20.5C9.8894 20.5 9.5 20.7959 9.5 21C9.5 21.2041 9.8894 21.5 10.5 21.5Z" fill="#F9F7F0"/>
</svg>
