<svg width="76" height="42" viewBox="0 0 76 42" fill="none" xmlns="http://www.w3.org/2000/svg">
<mask id="mask0" mask-type="alpha" maskUnits="userSpaceOnUse" x="0" y="0" width="76" height="42">
<rect width="76" height="42" fill="#C4C4C4"/>
</mask>
<g mask="url(#mask0)">
<path d="M5.28866 31.6153C5.96351 32.3177 6.71412 32.903 7.54047 33.3713C8.3806 33.8533 9.22761 34.239 10.0815 34.5282C10.9492 34.8174 11.7962 35.024 12.6225 35.148C13.4489 35.2719 14.1926 35.3339 14.8537 35.3339C16.1483 35.3339 17.3121 35.2099 18.345 34.962C19.378 34.7279 20.2525 34.2941 20.9687 33.6605C21.6987 33.027 22.2564 32.1593 22.6421 31.0575C23.0277 29.9557 23.2205 28.5371 23.2205 26.8018V24.9425C22.6972 25.4383 22.1049 25.8859 21.4439 26.2853C20.7828 26.6847 20.0735 27.029 19.316 27.3183C18.5585 27.6075 17.7597 27.8278 16.9196 27.9793C16.0932 28.1308 15.2531 28.2066 14.3992 28.2066C12.471 28.2066 10.7564 27.9656 9.25515 27.4835C7.76772 27.0015 6.51442 26.3197 5.49525 25.4383C4.47608 24.5431 3.69793 23.4619 3.1608 22.1949C2.63744 20.9278 2.37577 19.5092 2.37577 17.9392C2.37577 17.0853 2.49972 16.2382 2.74762 15.3981C2.99553 14.5442 3.3605 13.7316 3.84254 12.9604C4.33835 12.1753 4.94435 11.4523 5.66052 10.7912C6.39046 10.1163 7.2237 9.53101 8.16024 9.0352C9.09677 8.53939 10.1435 8.15375 11.3004 7.8783C12.4573 7.58908 13.7106 7.44447 15.0603 7.44447C15.6938 7.44447 16.3687 7.50644 17.0848 7.6304C17.8148 7.74058 18.5379 7.91962 19.254 8.16753C19.9702 8.41543 20.6657 8.73909 21.3406 9.13849C22.0292 9.52412 22.6558 9.99239 23.2205 10.5433V8.06423H32.1038V11.5762H27.5589V26.8018C27.5589 29.0192 27.249 30.8785 26.6292 32.3797C26.0095 33.8809 25.1418 35.086 24.0262 35.995C22.9106 36.904 21.5816 37.5513 20.0391 37.9369C18.5103 38.3363 16.8301 38.536 14.9983 38.536C13.924 38.536 12.8222 38.4534 11.6929 38.2881C10.5635 38.1228 9.46174 37.868 8.38748 37.5237C7.327 37.1932 6.32849 36.7593 5.39195 36.2222C4.45542 35.6989 3.64973 35.0653 2.97487 34.3216L5.28866 31.6153ZM4.19374 37.1932C4.88237 37.689 5.66052 38.1159 6.52819 38.474C7.39586 38.8321 8.30485 39.1213 9.25515 39.3417C10.2055 39.5621 11.1695 39.7204 12.1474 39.8168C13.1252 39.927 14.0755 39.9821 14.9983 39.9821C16.2516 39.9821 17.4705 39.8857 18.6549 39.6929C19.8394 39.5139 20.9481 39.2177 21.981 38.8046C23.0277 38.3914 23.9849 37.8474 24.8526 37.1725C25.7202 36.4977 26.464 35.6644 27.0837 34.6728C27.7035 33.6949 28.1855 32.5449 28.5298 31.2228C28.8742 29.9144 29.0463 28.4063 29.0463 26.6985V13.0224H33.5913V9.22113H34.4176V13.8074H29.8727V26.6985C29.8727 28.4889 29.6936 30.0797 29.3355 31.4707C28.9774 32.8617 28.4747 34.0806 27.8274 35.1273C27.1801 36.174 26.402 37.0555 25.493 37.7716C24.584 38.4878 23.5786 39.0662 22.4768 39.507C21.375 39.9477 20.1906 40.2645 18.9235 40.4573C17.6564 40.6639 16.348 40.7672 14.9983 40.7672C13.9516 40.7672 12.8842 40.6845 11.7962 40.5192C10.7082 40.354 9.67522 40.113 8.69737 39.7962C7.73329 39.4932 6.85184 39.1213 6.05304 38.6806C5.268 38.2399 4.64824 37.7441 4.19374 37.1932ZM6.85873 17.7739C6.85873 18.8344 7.024 19.8122 7.35454 20.7074C7.69886 21.5889 8.20155 22.3533 8.86264 23.0006C9.53749 23.6341 10.3638 24.1299 11.3417 24.488C12.3333 24.8461 13.4696 25.0251 14.7504 25.0251C15.7696 25.0251 16.7819 24.9012 17.7872 24.6533C18.8064 24.3916 19.7154 23.9715 20.5142 23.3931C21.3268 22.8146 21.981 22.0571 22.4768 21.1206C22.9726 20.1841 23.2205 19.0341 23.2205 17.6706C23.2205 16.6927 23.007 15.7769 22.5801 14.923C22.1531 14.0691 21.5678 13.3253 20.8241 12.6918C20.0804 12.0583 19.2058 11.5625 18.2004 11.2044C17.2088 10.8325 16.1483 10.6466 15.019 10.6466C13.9172 10.6466 12.8704 10.8187 11.8788 11.1631C10.901 11.5074 10.0402 11.9963 9.29647 12.6298C8.55275 13.2634 7.96053 14.0209 7.51981 14.9023C7.07909 15.77 6.85873 16.7272 6.85873 17.7739ZM8.30485 17.8152C8.30485 17.0302 8.47012 16.2933 8.80066 15.6047C9.1312 14.9023 9.59258 14.2963 10.1848 13.7867C10.777 13.2634 11.4863 12.8502 12.3127 12.5472C13.139 12.2442 14.0411 12.0927 15.019 12.0927C16.3274 12.0927 17.4085 12.3062 18.2624 12.7331C19.1301 13.1463 19.8118 13.6765 20.3076 14.3239C19.9771 14.1173 19.6328 13.9245 19.2747 13.7454C18.9304 13.5664 18.5447 13.4149 18.1178 13.2909C17.7046 13.1532 17.2432 13.0499 16.7336 12.981C16.2241 12.8984 15.6525 12.8571 15.019 12.8571C14.1513 12.8571 13.3594 12.9948 12.6432 13.2703C11.927 13.5319 11.3073 13.89 10.7839 14.3445C10.2743 14.799 9.87492 15.3224 9.5857 15.9146C9.31024 16.493 9.17252 17.099 9.17252 17.7326C9.17252 19.0823 9.48929 20.2392 10.1228 21.2032C10.7701 22.1536 11.8375 22.9248 13.3249 23.517C12.6088 23.4482 11.9408 23.2622 11.321 22.9592C10.715 22.6563 10.1848 22.2568 9.73031 21.761C9.28959 21.2652 8.93839 20.6868 8.67671 20.0257C8.4288 19.3508 8.30485 18.614 8.30485 17.8152ZM4.87548 26.6985C5.44016 27.153 6.08747 27.5662 6.81741 27.938C7.56113 28.2961 8.34617 28.5991 9.17252 28.847C10.0126 29.1087 10.8734 29.3084 11.7549 29.4461C12.6501 29.5838 13.5384 29.6527 14.4199 29.6527C15.9486 29.6527 17.3741 29.4668 18.6962 29.0949C20.0322 28.7368 21.2166 28.2204 22.2496 27.5455L22.1256 28.5784C21.0927 29.1982 19.9151 29.6596 18.5929 29.9626C17.2846 30.2794 15.9004 30.4377 14.4405 30.4377C12.2094 30.4377 10.2743 30.121 8.63539 29.4874C6.99646 28.8677 5.74315 27.938 4.87548 26.6985Z" fill="#E99F28"/>
<path d="M38.6427 24.6946H44.0347V5.58517H38.3329V2.27976H53.1659C54.6258 2.27976 55.9273 2.29353 57.0704 2.32108C58.2273 2.34862 59.2396 2.38306 60.1073 2.42437C60.9887 2.46569 61.7531 2.52078 62.4004 2.58964C63.0477 2.65851 63.6055 2.73426 64.0738 2.81689C65.2031 3.02348 66.1603 3.31959 66.9453 3.70522C67.7441 4.09085 68.3915 4.55223 68.8873 5.08936C69.3831 5.62649 69.7412 6.23248 69.9615 6.90734C70.1957 7.56842 70.3127 8.28459 70.3127 9.05586C70.3127 9.60676 70.1957 10.1714 69.9615 10.7499C69.7274 11.3146 69.3624 11.8586 68.8666 12.3819C68.3846 12.8915 67.7717 13.3598 67.028 13.7867C66.298 14.2137 65.4372 14.558 64.4456 14.8197C65.451 14.9436 66.3462 15.1915 67.1313 15.5634C67.9301 15.9215 68.598 16.3691 69.1352 16.9062C69.6861 17.4296 70.0993 18.0218 70.3747 18.6829C70.6639 19.344 70.8085 20.0326 70.8085 20.7488C70.8085 21.5889 70.6915 22.367 70.4573 23.0832C70.2232 23.7856 69.8376 24.4191 69.3004 24.9838C68.7771 25.5485 68.0885 26.0374 67.2346 26.4506C66.3807 26.85 65.334 27.1668 64.0944 27.4009C62.7585 27.6488 61.2228 27.8141 59.4875 27.8967C57.7659 27.9656 55.7758 28 53.5171 28H38.6427V24.6946ZM53.5171 29.4461C55.7069 29.4461 57.7177 29.4186 59.5495 29.3635C61.395 29.3222 63.0064 29.1638 64.3836 28.8883C65.9262 28.5853 67.207 28.1515 68.2262 27.5868C69.2454 27.0084 70.051 26.3542 70.6433 25.6242C71.2493 24.8943 71.6693 24.1024 71.9035 23.2485C72.1514 22.3946 72.2753 21.5338 72.2753 20.6661C72.2753 20.0601 72.1858 19.4679 72.0068 18.8895C71.8277 18.2972 71.5523 17.7463 71.1804 17.2368C70.8085 16.7272 70.3334 16.2658 69.7549 15.8526C69.1765 15.4257 68.4879 15.0745 67.6891 14.799C69.1076 14.0966 70.1475 13.2703 70.8085 12.32C71.4696 11.3559 71.8002 10.2678 71.8002 9.05586C71.8002 7.85764 71.4765 6.72141 70.8292 5.64715C70.1819 4.55912 69.1214 3.64324 67.6477 2.89953C68.4741 3.10611 69.1972 3.40911 69.8169 3.80851C70.4367 4.19415 70.9532 4.64864 71.3663 5.172C71.7933 5.69535 72.11 6.2738 72.3166 6.90734C72.5232 7.54088 72.6265 8.20196 72.6265 8.89059C72.6265 10.1439 72.3717 11.2388 71.8621 12.1753C71.3526 13.0981 70.5331 13.9589 69.4037 14.7577C70.7259 15.4601 71.6693 16.3209 72.234 17.34C72.8124 18.3454 73.1017 19.4541 73.1017 20.6661C73.1017 21.7404 72.9502 22.7595 72.6472 23.7236C72.3442 24.6739 71.8484 25.5416 71.1597 26.3266C70.4849 27.0979 69.6034 27.7659 68.5154 28.3305C67.4412 28.909 66.119 29.3497 64.5489 29.6527C63.1579 29.9282 61.5603 30.0934 59.7561 30.1485C57.9656 30.2036 55.886 30.2312 53.5171 30.2312H39.9649V29.4461H53.5171ZM56.4093 13.6421C58.1034 13.6421 59.5013 13.5595 60.6031 13.3942C61.7187 13.2289 62.607 12.9741 63.2681 12.6298C63.9292 12.2717 64.3905 11.831 64.6522 11.3077C64.9277 10.7705 65.0654 10.1301 65.0654 9.3864C65.0654 8.64268 64.8313 7.97471 64.363 7.38249C63.8947 6.79027 63.1441 6.33578 62.1112 6.01901C61.4088 5.81242 60.5962 5.68847 59.6734 5.64715C58.7507 5.60583 57.6626 5.58517 56.4093 5.58517H48.7449V13.6421H56.4093ZM50.2323 7.03129H56.4093C57.4561 7.03129 58.3582 7.05884 59.1156 7.11393C59.8731 7.15524 60.5204 7.23788 61.0576 7.36183C61.5947 7.48579 62.0492 7.65106 62.4211 7.85764C62.7929 8.05046 63.1235 8.29837 63.4127 8.60136C63.1372 8.47741 62.8067 8.36723 62.4211 8.27082C62.0492 8.17441 61.5878 8.09178 61.0369 8.02291C60.486 7.95405 59.8318 7.90585 59.0743 7.8783C58.3306 7.83699 57.4423 7.81633 56.4093 7.81633H51.0587V12.4026H50.2323V7.03129ZM39.5724 7.03129H43.167V7.85764H39.5724V7.03129ZM56.8019 24.6946C58.2204 24.6946 59.4393 24.6602 60.4585 24.5913C61.4776 24.5087 62.3591 24.3296 63.1028 24.0542C63.5711 23.8751 63.9567 23.6616 64.2597 23.4137C64.5765 23.1658 64.8244 22.8973 65.0034 22.608C65.1825 22.3051 65.3064 21.9814 65.3753 21.6371C65.4441 21.2928 65.4786 20.9347 65.4786 20.5628C65.4786 19.6538 65.1962 18.8688 64.6316 18.2077C64.0806 17.5329 63.2199 17.0233 62.0492 16.679C61.333 16.4724 60.5136 16.3484 59.5908 16.3071C58.668 16.252 57.6213 16.2245 56.4507 16.2245H48.7449V24.6946H56.8019ZM50.2323 17.6706H56.4093C57.4561 17.6706 58.3788 17.705 59.1776 17.7739C59.9764 17.8427 60.6651 17.9529 61.2435 18.1044C61.8357 18.2421 62.3384 18.4212 62.7516 18.6416C63.1648 18.8481 63.516 19.1029 63.8052 19.4059C63.4471 19.2407 63.0615 19.1029 62.6483 18.9928C62.2489 18.8688 61.7669 18.7655 61.2022 18.6829C60.6375 18.6002 59.9695 18.5451 59.1983 18.5176C58.427 18.4763 57.4974 18.4556 56.4093 18.4556H51.0587V23.4551H50.2323V17.6706Z" fill="#FFE9CC"/>
<line x1="36.8247" y1="38.3608" x2="76" y2="38.3608" stroke="#806729" stroke-width="1.56701"/>
<line y1="0.752574" x2="32.1237" y2="0.752574" stroke="#806729" stroke-width="1.56701"/>
</g>
</svg>
