<svg width="28" height="28" viewBox="0 0 28 28" fill="none" xmlns="http://www.w3.org/2000/svg">
<g clip-path="url(#clip0)">
<path d="M9.35156 19.7969H13.1797V28H9.35156V19.7969Z" fill="#F9F7F0"/>
<path d="M24.568 15.8146C24.5453 15.8149 24.5226 15.8151 24.5 15.8151C23.1492 15.8151 21.9184 15.2914 21 14.4363C20.0816 15.2914 18.8508 15.8151 17.5 15.8151C16.1492 15.8151 14.9184 15.2914 14 14.4363C13.0816 15.2914 11.8508 15.8151 10.5 15.8151C9.14916 15.8151 7.91842 15.2914 7 14.4363C6.08158 15.2914 4.85084 15.8151 3.5 15.8151C3.47725 15.8151 3.45499 15.8149 3.43224 15.8146C3.02575 15.8094 2.62708 15.7562 2.24219 15.6586V26.0861C2.24219 27.1415 3.10084 28.0001 4.15625 28.0001H7.71094V19.797H7.4375C6.98447 19.797 6.61719 19.4297 6.61719 18.9767C6.61719 18.5237 6.98447 18.1564 7.4375 18.1564H20.5625C21.0155 18.1564 21.3828 18.5237 21.3828 18.9767C21.3828 19.4297 21.0155 19.797 20.5625 19.797H20.2891V28.0001H23.8438C24.8992 28.0001 25.7578 27.1415 25.7578 26.0861V15.6586C25.3729 15.7562 24.9744 15.8093 24.568 15.8146Z" fill="#F9F7F0"/>
<path d="M14.8203 19.7969H18.6484V28H14.8203V19.7969Z" fill="#F9F7F0"/>
<path d="M8.0249 6.96391H13.1797V0.0222578C13.1797 0.0147656 13.1806 0.0074375 13.1808 0H9.56195C9.5637 0.0665 9.55839 0.134094 9.54314 0.201961L8.0249 6.96391Z" fill="#F9F7F0"/>
<path d="M19.9747 6.96391L18.4565 0.201961C18.4412 0.134094 18.4359 0.0664453 18.4377 0H14.8188C14.819 0.00749219 14.8199 0.0147656 14.8199 0.0222578V6.96391H19.9747Z" fill="#F9F7F0"/>
<path d="M3.45352 14.174C3.46916 14.1742 3.48441 14.1743 3.5 14.1743C4.58998 14.1743 5.56352 13.6758 6.20545 12.8945L6.18379 8.60449H0V10.622C0 12.5457 1.53016 14.1491 3.45352 14.174Z" fill="#F9F7F0"/>
<path d="M20.0928 0L21.6564 6.96391H27.6325L24.822 0.687039C24.6348 0.269062 24.2195 0 23.7616 0L20.0928 0Z" fill="#F9F7F0"/>
<path d="M6.34363 6.96391L7.9072 0H4.238C3.78027 0 3.36513 0.268789 3.17788 0.686492L0.363281 6.96391H6.34363Z" fill="#F9F7F0"/>
<path d="M13.1794 12.9249V8.60449H7.82422L7.8462 12.955C8.48807 13.7011 9.43837 14.1742 10.4997 14.1742C11.5755 14.1743 12.5374 13.6885 13.1794 12.9249Z" fill="#F9F7F0"/>
<path d="M20.1535 12.955L20.1755 8.60449H14.8203V12.9249C15.4623 13.6885 16.4242 14.1742 17.5 14.1742C18.5614 14.1742 19.5117 13.7011 20.1535 12.955Z" fill="#F9F7F0"/>
<path d="M27.9999 10.6221V8.60449H21.8161L21.7944 12.8946C22.4364 13.6758 23.4098 14.1743 24.4999 14.1743C24.5154 14.1743 24.5309 14.1741 24.5464 14.174C26.4698 14.149 27.9999 12.5456 27.9999 10.6221Z" fill="#F9F7F0"/>
</g>
<defs>
<clipPath id="clip0">
<rect width="28" height="28" fill="white"/>
</clipPath>
</defs>
</svg>
