<svg width="28" height="28" viewBox="0 0 28 28" fill="none" xmlns="http://www.w3.org/2000/svg">
<path d="M16.0652 8.82872C16.0297 8.81691 15.996 8.80204 15.9619 8.7876L15.0532 9.97716L15.8468 10.5722L16.0652 8.82872Z" fill="#F9F7F0"/>
<path d="M15.3125 8.19576C15.2652 8.1052 15.2232 8.01113 15.1979 7.9092L15.1633 7.77051C14.9328 7.83745 14.6895 7.87507 14.4375 7.87507C14.1855 7.87507 13.9423 7.83745 13.7113 7.77051L13.6767 7.9092C13.6513 8.01113 13.6093 8.1052 13.5625 8.19576L14.4375 9.34157L15.3125 8.19576Z" fill="#F9F7F0"/>
<path d="M22.7497 14.2564L23.1872 14.6939V7.4375H22.1171C22.2453 8.00319 22.3122 8.58944 22.3122 9.1875C22.3122 10.7533 21.8476 12.2102 21.0562 13.4378L22.3122 14.6939L22.7497 14.2564Z" fill="#F9F7F0"/>
<path d="M10.5 12.6484C11.4629 13.7426 12.8691 14.4374 14.4375 14.4374C16.0059 14.4374 17.4121 13.7426 18.375 12.6484V11.1749C18.375 10.5742 18.1414 10.0099 17.7166 9.58506C17.4891 9.35757 17.2152 9.18475 16.9159 9.07275L16.5279 12.1772L14.4375 10.6092L12.3471 12.1772L11.9591 9.07275C11.6598 9.18519 11.3859 9.358 11.1584 9.58506C10.7336 10.0099 10.5 10.5742 10.5 11.1749V12.6484ZM14 11.8124H14.875V13.5624H14V11.8124Z" fill="#F9F7F0"/>
<path d="M11.9906 8.14537L12.5094 8.01544C12.6669 7.97606 12.789 7.85444 12.8279 7.69694L12.9076 7.37844C12.2456 6.90156 11.8125 6.12631 11.8125 5.25V4.25294C11.8125 3.87581 12.0531 3.542 12.411 3.423C13.0095 3.2235 13.5621 2.88225 14.0083 2.43556L14.4375 2.00637L14.8662 2.43512C15.3129 2.88181 15.8651 3.22306 16.464 3.423C16.8219 3.542 17.0625 3.87537 17.0625 4.25294V5.25C17.0625 6.12631 16.6294 6.902 15.9674 7.37887L16.0471 7.69737C16.0864 7.85444 16.2081 7.9765 16.3656 8.01544L16.8853 8.14581C16.9991 8.17425 17.1093 8.21275 17.2182 8.25344C17.402 7.10281 17.5004 5.93425 17.5004 4.77006V4.31112C17.5004 3.84825 17.3911 3.3845 17.1837 2.97019C16.6722 1.94775 15.6446 1.3125 14.5014 1.3125H14.3741C13.2309 1.3125 12.2028 1.94775 11.6918 2.97019C11.4844 3.3845 11.375 3.84869 11.375 4.31112V4.76919C11.375 5.93381 11.4734 7.10237 11.6572 8.253C11.7666 8.21231 11.8768 8.17381 11.9906 8.14537Z" fill="#F9F7F0"/>
<path d="M16.1875 5.25013V4.25307C15.5431 4.03826 14.9428 3.68826 14.4375 3.23413C13.9322 3.68826 13.3319 4.03869 12.6875 4.25307V5.25013C12.6875 6.21526 13.4724 7.00013 14.4375 7.00013C15.4026 7.00013 16.1875 6.21526 16.1875 5.25013Z" fill="#F9F7F0"/>
<path d="M13.0274 10.5726L13.821 9.97765L12.9123 8.78809C12.8782 8.80252 12.8445 8.81784 12.8091 8.82921L13.0274 10.5726Z" fill="#F9F7F0"/>
<path d="M26.2718 19.016L22.7495 15.4937L20.7432 17.5L24.2655 21.0223C24.5332 21.2901 24.8898 21.4375 25.2687 21.4375C26.0509 21.4375 26.687 20.8014 26.687 20.0192C26.687 19.6403 26.5396 19.2837 26.2718 19.016ZM25.3745 20.5625C25.133 20.5625 24.937 20.3665 24.937 20.125C24.937 19.8835 25.133 19.6875 25.3745 19.6875C25.616 19.6875 25.812 19.8835 25.812 20.125C25.812 20.3665 25.616 20.5625 25.3745 20.5625Z" fill="#F9F7F0"/>
<path d="M3.0625 18.8125C2.57994 18.8125 2.1875 18.4201 2.1875 17.9375V7.4375C2.1875 6.95494 2.57994 6.5625 3.0625 6.5625H7.01531C7.12119 6.26281 7.24325 5.97056 7.38325 5.6875H2.625C1.90137 5.6875 1.3125 6.27637 1.3125 7V20.125C1.3125 20.8486 1.90137 21.4375 2.625 21.4375H23.4439L20.8189 18.8125H3.0625ZM3.9375 20.5625H3.0625V19.6875H3.9375V20.5625ZM5.6875 20.5625H4.8125V19.6875H5.6875V20.5625ZM7.4375 20.5625H6.5625V19.6875H7.4375V20.5625Z" fill="#F9F7F0"/>
<path d="M23.1874 6.5625C23.67 6.5625 24.0624 6.95494 24.0624 7.4375V15.5689L24.9375 16.4439V7C24.9375 6.27637 24.3486 5.6875 23.6249 5.6875H21.4917C21.6321 5.97056 21.7542 6.26281 21.8596 6.5625H23.1874Z" fill="#F9F7F0"/>
<path d="M14.4375 16.1875C18.2971 16.1875 21.4375 13.0472 21.4375 9.18754C21.4375 6.77867 20.2125 4.58767 18.2385 3.31367C18.3256 3.63917 18.375 3.97473 18.375 4.31117V4.51373C19.7641 5.68273 20.5625 7.37016 20.5625 9.18754C20.5625 12.565 17.815 15.3125 14.4375 15.3125C11.06 15.3125 8.3125 12.565 8.3125 9.18754C8.3125 7.37016 9.11094 5.68273 10.5 4.51373V4.31117C10.5 3.97473 10.5494 3.63917 10.6365 3.31323C8.6625 4.58767 7.4375 6.77867 7.4375 9.18754C7.4375 13.0472 10.5779 16.1875 14.4375 16.1875Z" fill="#F9F7F0"/>
<path d="M18.6878 15.8064C17.4602 16.5979 16.0033 17.0625 14.4375 17.0625C10.0953 17.0625 6.5625 13.5297 6.5625 9.1875C6.5625 8.58944 6.62944 8.00319 6.75763 7.4375H3.0625V17.9375H19.9439L19.5064 17.5L19.9439 17.0625L18.6878 15.8064ZM3.9375 8.3125H5.6875V9.1875H3.9375V8.3125ZM3.9375 10.0625H5.6875V10.9375H3.9375V10.0625ZM3.9375 11.8125H5.6875V12.6875H3.9375V11.8125ZM3.9375 13.5625H5.6875V14.4375H3.9375V13.5625ZM4.8125 16.1875H3.9375V15.3125H4.8125V16.1875ZM6.5625 16.1875H5.6875V15.3125H6.5625V16.1875ZM8.3125 16.1875H7.4375V15.3125H8.3125V16.1875Z" fill="#F9F7F0"/>
<path d="M19.6875 24.9375H6.5625C6.321 24.9375 6.125 25.1335 6.125 25.375V26.25C6.125 26.4915 6.321 26.6875 6.5625 26.6875H19.6875C19.929 26.6875 20.125 26.4915 20.125 26.25V25.375C20.125 25.1335 19.929 24.9375 19.6875 24.9375Z" fill="#F9F7F0"/>
<path d="M21.6941 15.3125L20.5391 14.1575C20.2009 14.5718 19.822 14.9507 19.4077 15.2888L20.5627 16.4438L21.6941 15.3125Z" fill="#F9F7F0"/>
<path d="M9.60929 22.3125C9.55942 22.953 9.33192 23.5572 8.95654 24.0625H17.2949C16.9195 23.5572 16.692 22.953 16.6421 22.3125H9.60929Z" fill="#F9F7F0"/>
</svg>
