<svg width="220" height="68" viewBox="0 0 220 68" fill="none" xmlns="http://www.w3.org/2000/svg">
<path d="M6.75 54.6143C7.61133 55.5107 8.56934 56.2578 9.62402 56.8555C10.6963 57.4707 11.7773 57.9629 12.8672 58.332C13.9746 58.7012 15.0557 58.9648 16.1104 59.123C17.165 59.2812 18.1143 59.3604 18.958 59.3604C20.6104 59.3604 22.0957 59.2021 23.4141 58.8857C24.7324 58.5869 25.8486 58.0332 26.7627 57.2246C27.6943 56.416 28.4062 55.3086 28.8984 53.9023C29.3906 52.4961 29.6367 50.6855 29.6367 48.4707V46.0977C28.9688 46.7305 28.2129 47.3018 27.3691 47.8115C26.5254 48.3213 25.6201 48.7607 24.6533 49.1299C23.6865 49.499 22.667 49.7803 21.5947 49.9736C20.54 50.167 19.4678 50.2637 18.3779 50.2637C15.917 50.2637 13.7285 49.9561 11.8125 49.3408C9.91406 48.7256 8.31445 47.8555 7.01367 46.7305C5.71289 45.5879 4.71973 44.208 4.03418 42.5908C3.36621 40.9736 3.03223 39.1631 3.03223 37.1592C3.03223 36.0693 3.19043 34.9883 3.50684 33.916C3.82324 32.8262 4.28906 31.7891 4.9043 30.8047C5.53711 29.8027 6.31055 28.8799 7.22461 28.0361C8.15625 27.1748 9.21973 26.4277 10.415 25.7949C11.6104 25.1621 12.9463 24.6699 14.4229 24.3184C15.8994 23.9492 17.499 23.7646 19.2217 23.7646C20.0303 23.7646 20.8916 23.8438 21.8057 24.002C22.7373 24.1426 23.6602 24.3711 24.5742 24.6875C25.4883 25.0039 26.376 25.417 27.2373 25.9268C28.1162 26.4189 28.916 27.0166 29.6367 27.7197V24.5557H40.9746V29.0381H35.1738V48.4707C35.1738 51.3008 34.7783 53.6738 33.9873 55.5898C33.1963 57.5059 32.0889 59.0439 30.665 60.2041C29.2412 61.3643 27.5449 62.1904 25.5762 62.6826C23.625 63.1924 21.4805 63.4473 19.1426 63.4473C17.7715 63.4473 16.3652 63.3418 14.9238 63.1309C13.4824 62.9199 12.0762 62.5947 10.7051 62.1553C9.35156 61.7334 8.07715 61.1797 6.88184 60.4941C5.68652 59.8262 4.6582 59.0176 3.79688 58.0684L6.75 54.6143ZM5.35254 61.7334C6.23145 62.3662 7.22461 62.9111 8.33203 63.3682C9.43945 63.8252 10.5996 64.1943 11.8125 64.4756C13.0254 64.7568 14.2559 64.959 15.5039 65.082C16.752 65.2227 17.9648 65.293 19.1426 65.293C20.7422 65.293 22.2979 65.1699 23.8096 64.9238C25.3213 64.6953 26.7363 64.3174 28.0547 63.79C29.3906 63.2627 30.6123 62.5684 31.7197 61.707C32.8271 60.8457 33.7764 59.7822 34.5674 58.5166C35.3584 57.2686 35.9736 55.8008 36.4131 54.1133C36.8525 52.4434 37.0723 50.5186 37.0723 48.3389V30.8838H42.873V26.0322H43.9277V31.8857H38.127V48.3389C38.127 50.624 37.8984 52.6543 37.4414 54.4297C36.9844 56.2051 36.3428 57.7607 35.5166 59.0967C34.6904 60.4326 33.6973 61.5576 32.5371 62.4717C31.377 63.3857 30.0937 64.124 28.6875 64.6865C27.2813 65.249 25.7695 65.6533 24.1523 65.8994C22.5352 66.1631 20.8652 66.2949 19.1426 66.2949C17.8066 66.2949 16.4443 66.1895 15.0557 65.9785C13.667 65.7676 12.3486 65.46 11.1006 65.0557C9.87012 64.6689 8.74512 64.1943 7.72559 63.6318C6.72363 63.0693 5.93262 62.4365 5.35254 61.7334ZM8.75391 36.9482C8.75391 38.3018 8.96484 39.5498 9.38672 40.6924C9.82617 41.8174 10.4678 42.793 11.3115 43.6191C12.1729 44.4277 13.2275 45.0605 14.4756 45.5176C15.7412 45.9746 17.1914 46.2031 18.8262 46.2031C20.127 46.2031 21.4189 46.0449 22.7021 45.7285C24.0029 45.3945 25.1631 44.8584 26.1826 44.1201C27.2197 43.3818 28.0547 42.415 28.6875 41.2197C29.3203 40.0244 29.6367 38.5566 29.6367 36.8164C29.6367 35.5684 29.3643 34.3994 28.8193 33.3096C28.2744 32.2197 27.5273 31.2705 26.5781 30.4619C25.6289 29.6533 24.5127 29.0205 23.2295 28.5635C21.9639 28.0889 20.6104 27.8516 19.1689 27.8516C17.7627 27.8516 16.4268 28.0713 15.1611 28.5107C13.9131 28.9502 12.8145 29.5742 11.8652 30.3828C10.916 31.1914 10.1602 32.1582 9.59766 33.2832C9.03516 34.3906 8.75391 35.6123 8.75391 36.9482ZM10.5996 37.001C10.5996 35.999 10.8105 35.0586 11.2324 34.1797C11.6543 33.2832 12.2432 32.5098 12.999 31.8594C13.7549 31.1914 14.6602 30.6641 15.7148 30.2773C16.7695 29.8906 17.9209 29.6973 19.1689 29.6973C20.8389 29.6973 22.2188 29.9697 23.3086 30.5146C24.416 31.042 25.2861 31.7188 25.9189 32.5449C25.4971 32.2812 25.0576 32.0352 24.6006 31.8066C24.1611 31.5781 23.6689 31.3848 23.124 31.2266C22.5967 31.0508 22.0078 30.9189 21.3574 30.8311C20.707 30.7256 19.9775 30.6729 19.1689 30.6729C18.0615 30.6729 17.0508 30.8486 16.1367 31.2002C15.2227 31.5342 14.4316 31.9912 13.7637 32.5713C13.1133 33.1514 12.6035 33.8193 12.2344 34.5752C11.8828 35.3135 11.707 36.0869 11.707 36.8955C11.707 38.6182 12.1113 40.0947 12.9199 41.3252C13.7461 42.5381 15.1084 43.5225 17.0068 44.2783C16.0928 44.1904 15.2402 43.9531 14.4492 43.5664C13.6758 43.1797 12.999 42.6699 12.4189 42.0371C11.8564 41.4043 11.4082 40.666 11.0742 39.8223C10.7578 38.9609 10.5996 38.0205 10.5996 37.001ZM6.22266 48.3389C6.94336 48.9189 7.76953 49.4463 8.70117 49.9209C9.65039 50.3779 10.6523 50.7646 11.707 51.0811C12.7793 51.415 13.8779 51.6699 15.0029 51.8457C16.1455 52.0215 17.2793 52.1094 18.4043 52.1094C20.3555 52.1094 22.1748 51.8721 23.8623 51.3975C25.5674 50.9404 27.0791 50.2812 28.3975 49.4199L28.2393 50.7383C26.9209 51.5293 25.418 52.1182 23.7305 52.5049C22.0605 52.9092 20.2939 53.1113 18.4307 53.1113C15.583 53.1113 13.1133 52.707 11.0215 51.8984C8.92969 51.1074 7.33008 49.9209 6.22266 48.3389ZM48.1602 37.6865C48.1602 35.7705 48.5733 33.9688 49.3995 32.2812C50.2256 30.5762 51.377 29.0996 52.8536 27.8516C54.3477 26.5859 56.1319 25.5928 58.2061 24.8721C60.2803 24.1338 62.5567 23.7646 65.0352 23.7646C67.6368 23.7646 69.9571 24.1162 71.9961 24.8193C74.0528 25.5049 75.7842 26.4629 77.1905 27.6934C78.6143 28.9238 79.6954 30.3828 80.4336 32.0703C81.1895 33.7578 81.5674 35.5947 81.5674 37.5811C81.5674 39.4971 81.1543 41.2637 80.3282 42.8809C79.5196 44.498 78.3594 45.8955 76.8477 47.0732C75.3536 48.2334 73.5518 49.1475 71.4424 49.8154C69.3506 50.4658 67.0127 50.791 64.4287 50.791C61.9854 50.791 59.7618 50.4307 57.7579 49.71C55.7715 48.9717 54.0664 47.9961 52.6426 46.7832C51.2188 45.5703 50.1114 44.1816 49.3204 42.6172C48.5469 41.0352 48.1602 39.3916 48.1602 37.6865ZM52.2998 48.7871C54.0049 50.0176 55.8858 50.9668 57.9424 51.6348C60.0166 52.3027 62.3545 52.6367 64.9561 52.6367C67.3819 52.6367 69.711 52.3027 71.9434 51.6348C74.1758 50.9844 76.1446 50.0176 77.8496 48.7344C79.5547 47.4512 80.917 45.8779 81.9366 44.0146C82.9561 42.1338 83.4659 39.9893 83.4659 37.5811C83.4659 36.4033 83.2989 35.2168 82.9649 34.0215C82.6485 32.8086 82.1914 31.6484 81.5938 30.541C81.0137 29.4336 80.3018 28.4053 79.458 27.4561C78.6143 26.4893 77.6739 25.6719 76.6368 25.0039C77.8145 25.5312 78.8868 26.2256 79.8536 27.0869C80.8379 27.9482 81.6729 28.9326 82.3584 30.04C83.044 31.1299 83.5713 32.3164 83.9405 33.5996C84.3272 34.8828 84.5205 36.21 84.5205 37.5811C84.5205 39.3037 84.2745 40.9033 83.7823 42.3799C83.2901 43.8389 82.6045 45.166 81.7256 46.3613C80.8643 47.5391 79.8272 48.585 78.6143 49.499C77.419 50.4131 76.1006 51.1689 74.6592 51.7666C73.2178 52.3818 71.6797 52.8477 70.045 53.1641C68.4278 53.4805 66.7754 53.6387 65.0879 53.6387C63.6817 53.6387 62.337 53.5244 61.0537 53.2959C59.7705 53.085 58.5752 52.7686 57.4678 52.3467C56.378 51.9424 55.3936 51.4414 54.5147 50.8438C53.6358 50.2461 52.8975 49.5605 52.2998 48.7871ZM54.0137 37.5811C54.0137 38.9346 54.2686 40.1738 54.7784 41.2988C55.3057 42.4062 56.044 43.3643 56.9932 44.1729C57.9424 44.9639 59.0762 45.5791 60.3946 46.0186C61.7305 46.458 63.2071 46.6777 64.8243 46.6777C66.459 46.6777 67.9444 46.458 69.2803 46.0186C70.6162 45.5615 71.7676 44.9375 72.7344 44.1465C73.7012 43.3379 74.4483 42.3799 74.9756 41.2725C75.503 40.1475 75.7666 38.917 75.7666 37.5811C75.7666 36.2627 75.503 35.0234 74.9756 33.8633C74.4483 32.6855 73.71 31.6572 72.7608 30.7783C71.8116 29.8818 70.669 29.1787 69.333 28.6689C68.0147 28.1416 66.5557 27.8779 64.9561 27.8779C63.2862 27.8779 61.7745 28.1328 60.4209 28.6426C59.085 29.1348 57.9424 29.8203 56.9932 30.6992C56.044 31.5605 55.3057 32.5801 54.7784 33.7578C54.2686 34.9355 54.0137 36.21 54.0137 37.5811ZM55.8594 37.6865C55.8594 36.5791 56.0791 35.542 56.5186 34.5752C56.958 33.5908 57.5733 32.7471 58.3643 32.0439C59.1729 31.3232 60.1309 30.7607 61.2383 30.3564C62.3633 29.9346 63.6026 29.7236 64.9561 29.7236C65.8174 29.7236 66.6524 29.8203 67.461 30.0137C68.2696 30.1895 69.0166 30.4531 69.7022 30.8047C70.3877 31.1562 70.9942 31.5869 71.5215 32.0967C72.0489 32.5889 72.4707 33.1514 72.7871 33.7842C71.627 32.7295 70.4141 31.9561 69.1485 31.4639C67.9004 30.9717 66.4854 30.7256 64.9034 30.7256C63.7608 30.7256 62.7061 30.9102 61.7393 31.2793C60.7725 31.6484 59.9287 32.1494 59.208 32.7822C58.4873 33.415 57.9248 34.1533 57.5205 34.9971C57.1162 35.8408 56.9141 36.7373 56.9141 37.6865C56.9141 38.4775 57.0108 39.2158 57.2041 39.9014C57.3975 40.5869 57.7227 41.2285 58.1797 41.8262C58.6543 42.4062 59.2784 42.9336 60.0518 43.4082C60.8252 43.8828 61.792 44.3047 62.9522 44.6738C61.8975 44.6035 60.9307 44.3838 60.0518 44.0146C59.1905 43.6279 58.4434 43.127 57.8106 42.5117C57.1954 41.8965 56.712 41.1758 56.3604 40.3496C56.0264 39.5234 55.8594 38.6357 55.8594 37.6865Z" fill="#E99F28"/>
<path d="M91.2315 45.7812H98.1134V21.3916H90.836V17.1729H109.768C111.631 17.1729 113.292 17.1904 114.751 17.2256C116.228 17.2607 117.52 17.3047 118.627 17.3574C119.752 17.4102 120.728 17.4805 121.554 17.5684C122.38 17.6562 123.092 17.7529 123.69 17.8584C125.131 18.1221 126.353 18.5 127.355 18.9922C128.374 19.4844 129.2 20.0732 129.833 20.7588C130.466 21.4443 130.923 22.2178 131.204 23.0791C131.503 23.9229 131.652 24.8369 131.652 25.8213C131.652 26.5244 131.503 27.2451 131.204 27.9834C130.905 28.7041 130.44 29.3984 129.807 30.0664C129.191 30.7168 128.409 31.3145 127.46 31.8594C126.528 32.4043 125.43 32.8438 124.164 33.1777C125.447 33.3359 126.59 33.6523 127.592 34.127C128.611 34.584 129.464 35.1553 130.149 35.8408C130.853 36.5088 131.38 37.2646 131.732 38.1084C132.101 38.9521 132.285 39.8311 132.285 40.7451C132.285 41.8174 132.136 42.8105 131.837 43.7246C131.538 44.6211 131.046 45.4297 130.36 46.1504C129.692 46.8711 128.814 47.4951 127.724 48.0225C126.634 48.5322 125.298 48.9365 123.716 49.2354C122.011 49.5518 120.051 49.7627 117.836 49.8682C115.639 49.9561 113.099 50 110.216 50H91.2315V45.7812ZM110.216 51.8457C113.011 51.8457 115.577 51.8105 117.915 51.7402C120.271 51.6875 122.327 51.4854 124.085 51.1338C126.054 50.7471 127.689 50.1934 128.989 49.4727C130.29 48.7344 131.318 47.8994 132.074 46.9678C132.848 46.0361 133.384 45.0254 133.683 43.9355C133.999 42.8457 134.157 41.7471 134.157 40.6396C134.157 39.8662 134.043 39.1104 133.815 38.3721C133.586 37.6162 133.234 36.9131 132.76 36.2627C132.285 35.6123 131.679 35.0234 130.941 34.4961C130.202 33.9512 129.323 33.5029 128.304 33.1514C130.114 32.2549 131.441 31.2002 132.285 29.9873C133.129 28.7568 133.551 27.3682 133.551 25.8213C133.551 24.292 133.138 22.8418 132.312 21.4707C131.485 20.082 130.132 18.9131 128.251 17.9639C129.306 18.2275 130.229 18.6143 131.02 19.124C131.811 19.6162 132.47 20.1963 132.997 20.8643C133.542 21.5322 133.946 22.2705 134.21 23.0791C134.474 23.8877 134.606 24.7314 134.606 25.6104C134.606 27.21 134.28 28.6074 133.63 29.8027C132.98 30.9805 131.934 32.0791 130.492 33.0986C132.18 33.9951 133.384 35.0938 134.105 36.3945C134.843 37.6777 135.212 39.0928 135.212 40.6396C135.212 42.0107 135.019 43.3115 134.632 44.542C134.245 45.7549 133.612 46.8623 132.733 47.8643C131.872 48.8486 130.747 49.7012 129.358 50.4219C127.987 51.1602 126.3 51.7227 124.296 52.1094C122.521 52.4609 120.482 52.6719 118.179 52.7422C115.894 52.8125 113.239 52.8477 110.216 52.8477H92.919V51.8457H110.216ZM113.907 31.6748C116.069 31.6748 117.854 31.5693 119.26 31.3584C120.684 31.1475 121.817 30.8223 122.661 30.3828C123.505 29.9258 124.094 29.3633 124.428 28.6953C124.779 28.0098 124.955 27.1924 124.955 26.2432C124.955 25.2939 124.656 24.4414 124.059 23.6855C123.461 22.9297 122.503 22.3496 121.185 21.9453C120.288 21.6816 119.251 21.5234 118.073 21.4707C116.896 21.418 115.507 21.3916 113.907 21.3916H104.125V31.6748H113.907ZM106.024 23.2373H113.907C115.243 23.2373 116.395 23.2725 117.361 23.3428C118.328 23.3955 119.154 23.501 119.84 23.6592C120.525 23.8174 121.106 24.0283 121.58 24.292C122.055 24.5381 122.477 24.8545 122.846 25.2412C122.494 25.083 122.072 24.9424 121.58 24.8193C121.106 24.6963 120.517 24.5908 119.814 24.5029C119.11 24.415 118.275 24.3535 117.309 24.3184C116.359 24.2656 115.226 24.2393 113.907 24.2393H107.078V30.0928H106.024V23.2373ZM92.418 23.2373H97.0059V24.292H92.418V23.2373ZM114.408 45.7812C116.219 45.7812 117.774 45.7373 119.075 45.6494C120.376 45.5439 121.501 45.3154 122.45 44.9639C123.048 44.7354 123.54 44.4629 123.927 44.1465C124.331 43.8301 124.648 43.4873 124.876 43.1182C125.105 42.7314 125.263 42.3184 125.351 41.8789C125.439 41.4395 125.482 40.9824 125.482 40.5078C125.482 39.3477 125.122 38.3457 124.401 37.502C123.698 36.6406 122.6 35.9902 121.106 35.5508C120.191 35.2871 119.146 35.1289 117.968 35.0762C116.79 35.0059 115.454 34.9707 113.96 34.9707H104.125V45.7812H114.408ZM106.024 36.8164H113.907C115.243 36.8164 116.421 36.8604 117.441 36.9482C118.46 37.0361 119.339 37.1768 120.077 37.3701C120.833 37.5459 121.475 37.7744 122.002 38.0557C122.529 38.3193 122.978 38.6445 123.347 39.0312C122.89 38.8203 122.398 38.6445 121.87 38.5039C121.36 38.3457 120.745 38.2139 120.024 38.1084C119.304 38.0029 118.451 37.9326 117.467 37.8975C116.482 37.8447 115.296 37.8184 113.907 37.8184H107.078V44.1992H106.024V36.8164ZM141.053 37.3701C141.053 35.7354 141.396 34.1094 142.081 32.4922C142.767 30.875 143.777 29.4248 145.113 28.1416C146.467 26.8408 148.137 25.7861 150.123 24.9775C152.109 24.1689 154.395 23.7646 156.979 23.7646C157.805 23.7646 158.684 23.8262 159.615 23.9492C160.565 24.0723 161.505 24.2744 162.437 24.5557C163.386 24.8369 164.309 25.2148 165.205 25.6895C166.102 26.1465 166.919 26.709 167.657 27.377V24.5557H178.995V29.0381H173.194V46.0449H178.995V50H167.657V46.5723C166.972 47.2578 166.19 47.8643 165.311 48.3916C164.449 48.9189 163.526 49.3584 162.542 49.71C161.575 50.0615 160.565 50.3252 159.51 50.501C158.473 50.6943 157.436 50.791 156.399 50.791C153.867 50.791 151.644 50.4307 149.728 49.71C147.812 48.9893 146.212 48.0225 144.929 46.8096C143.646 45.5791 142.679 44.1553 142.028 42.5381C141.378 40.9033 141.053 39.1807 141.053 37.3701ZM175.093 30.8838H180.894V26.5596H181.948V31.8857H176.148V44.4629H175.093V30.8838ZM146.775 37.1592C146.775 38.6182 147.029 39.9365 147.539 41.1143C148.067 42.292 148.778 43.2939 149.675 44.1201C150.571 44.9463 151.635 45.5879 152.865 46.0449C154.096 46.502 155.423 46.7305 156.847 46.7305C157.673 46.7305 158.508 46.6514 159.352 46.4932C160.213 46.3174 161.039 46.0625 161.83 45.7285C162.639 45.377 163.395 44.9463 164.098 44.4365C164.818 43.9092 165.434 43.2939 165.943 42.5908C166.471 41.8701 166.884 41.0527 167.183 40.1387C167.499 39.2246 167.657 38.2051 167.657 37.0801C167.657 35.832 167.367 34.6543 166.787 33.5469C166.207 32.4219 165.425 31.4375 164.441 30.5938C163.474 29.75 162.34 29.082 161.039 28.5898C159.738 28.0977 158.367 27.8516 156.926 27.8516C155.484 27.8516 154.14 28.0713 152.892 28.5107C151.661 28.9502 150.589 29.5742 149.675 30.3828C148.778 31.1914 148.067 32.1758 147.539 33.3359C147.029 34.4785 146.775 35.7529 146.775 37.1592ZM148.594 37.291C148.594 36.1836 148.796 35.1729 149.2 34.2588C149.622 33.3271 150.202 32.5273 150.941 31.8594C151.679 31.1738 152.558 30.6465 153.577 30.2773C154.597 29.8906 155.713 29.6973 156.926 29.6973C157.84 29.6973 158.666 29.8027 159.404 30.0137C160.143 30.207 160.784 30.4531 161.329 30.752C161.874 31.0332 162.322 31.332 162.674 31.6484C163.026 31.9473 163.272 32.2109 163.412 32.4395C162.463 31.9121 161.487 31.4902 160.485 31.1738C159.484 30.8574 158.297 30.6992 156.926 30.6992C155.818 30.6992 154.817 30.8838 153.92 31.2529C153.041 31.6045 152.285 32.0879 151.652 32.7031C151.02 33.3184 150.527 34.0303 150.176 34.8389C149.842 35.6475 149.675 36.5 149.675 37.3965C149.675 38.2402 149.772 39.0312 149.965 39.7695C150.158 40.5078 150.466 41.1934 150.888 41.8262C151.327 42.4414 151.89 43.0127 152.575 43.54C153.278 44.0498 154.122 44.498 155.107 44.8848C153.999 44.6914 153.032 44.3662 152.206 43.9092C151.398 43.4346 150.721 42.8633 150.176 42.1953C149.649 41.5273 149.253 40.7803 148.989 39.9541C148.726 39.1104 148.594 38.2227 148.594 37.291ZM180.894 51.8457V47.5215H181.948V52.8477H169.239V51.8457H180.894ZM144.454 48.8662C145.175 49.4463 145.992 49.9648 146.906 50.4219C147.82 50.8965 148.796 51.292 149.833 51.6084C150.87 51.9424 151.943 52.1973 153.05 52.373C154.175 52.5488 155.3 52.6367 156.425 52.6367C158.376 52.6367 160.195 52.3906 161.883 51.8984C163.588 51.4238 165.1 50.7559 166.418 49.8945V51.1074C165.1 51.8984 163.57 52.5137 161.83 52.9531C160.108 53.4102 158.315 53.6387 156.451 53.6387C155.168 53.6387 153.911 53.5332 152.681 53.3223C151.45 53.1289 150.308 52.8301 149.253 52.4258C148.198 52.0215 147.258 51.5205 146.432 50.9229C145.606 50.3252 144.946 49.6396 144.454 48.8662ZM188.554 46.0449H194.355V29.0381H188.554V24.5557H200.024V28.959C200.569 28.2559 201.219 27.5879 201.975 26.9551C202.748 26.3223 203.618 25.7686 204.585 25.2939C205.552 24.8193 206.607 24.4502 207.749 24.1865C208.892 23.9053 210.113 23.7646 211.414 23.7646C211.801 23.7646 212.284 23.7822 212.864 23.8174C213.444 23.835 213.998 23.8877 214.526 23.9756V29.1436C213.91 29.0029 213.304 28.9062 212.706 28.8535C212.109 28.8008 211.528 28.7744 210.966 28.7744C209.56 28.7744 208.224 29.0029 206.958 29.46C205.71 29.8994 204.594 30.5498 203.61 31.4111C202.625 32.2549 201.817 33.292 201.184 34.5225C200.551 35.7529 200.164 37.1592 200.024 38.7412V46.0449H209.516V50H188.554V46.0449ZM201.869 41.1143C201.869 39.4619 202.08 37.9854 202.502 36.6846C202.924 35.3838 203.522 34.2852 204.295 33.3887C205.086 32.4922 206.044 31.8066 207.169 31.332C208.294 30.8574 209.56 30.6201 210.966 30.6201C211.265 30.6201 211.643 30.6465 212.1 30.6992C212.557 30.7344 213.031 30.7959 213.524 30.8838C214.033 30.9717 214.543 31.0859 215.053 31.2266C215.563 31.3496 216.02 31.499 216.424 31.6748V25.4521H217.479V32.9932C216.986 32.7822 216.45 32.5977 215.87 32.4395C215.308 32.2637 214.728 32.1143 214.13 31.9912C213.55 31.8682 212.987 31.7803 212.443 31.7275C211.898 31.6572 211.405 31.6221 210.966 31.6221C209.683 31.6221 208.54 31.833 207.538 32.2549C206.554 32.6768 205.719 33.2832 205.033 34.0742C204.348 34.8652 203.82 35.832 203.451 36.9746C203.1 38.1172 202.924 39.4092 202.924 40.8506V44.4629H201.869V41.1143ZM190.136 30.8838H193.247V31.8857H190.136V30.8838ZM211.414 51.8457V47.5215H212.469V52.8477H190.136V51.8457H211.414Z" fill="#FFE9CC"/>
<line x1="43" y1="63" x2="220" y2="63" stroke="#806729" stroke-width="2"/>
<line x1="143" y1="13" x2="220" y2="13" stroke="#806729" stroke-width="2"/>
<line x1="4" y1="13" x2="81" y2="13" stroke="#806729" stroke-width="2"/>
</svg>
